<svg xmlns="http://www.w3.org/2000/svg" width="80.617" height="61.133" viewBox="0 0 80.617 61.133">
  <g id="Group_61" data-name="Group 61" transform="translate(-1141.024 -1686)">
    <path id="Union_1" data-name="Union 1" d="M9.425,37V22.719H0L14.5,0,29,22.719H19.575V37Z" transform="translate(1166 1686)" fill="#fff"/>
    <path fill="#fff" id="Path_47" data-name="Path 47" d="M-30.742-9.272a3.987,3.987,0,0,1-.475,1.9,3.56,3.56,0,0,1-1.52,1.453,5.642,5.642,0,0,1-2.679.561H-37.81V0h-2.166V-13.205h4.56a5.757,5.757,0,0,1,2.575.523,3.633,3.633,0,0,1,1.577,1.415A3.877,3.877,0,0,1-30.742-9.272Zm-4.674,2.147a2.641,2.641,0,0,0,1.843-.56,2.05,2.05,0,0,0,.608-1.587q0-2.166-2.451-2.166H-37.81v4.313ZM-22.648.133A6.84,6.84,0,0,1-26.04-.732a6.406,6.406,0,0,1-2.451-2.413,6.8,6.8,0,0,1-.9-3.486,6.744,6.744,0,0,1,.9-3.477,6.426,6.426,0,0,1,2.451-2.4,6.84,6.84,0,0,1,3.392-.865,6.877,6.877,0,0,1,3.411.865,6.358,6.358,0,0,1,2.441,2.4A6.8,6.8,0,0,1-15.9-6.631,6.852,6.852,0,0,1-16.8-3.145,6.338,6.338,0,0,1-19.237-.732,6.877,6.877,0,0,1-22.648.133Zm0-1.881a4.552,4.552,0,0,0,2.337-.6,4.149,4.149,0,0,0,1.605-1.71,5.49,5.49,0,0,0,.58-2.575,5.433,5.433,0,0,0-.58-2.565,4.1,4.1,0,0,0-1.605-1.691,4.609,4.609,0,0,0-2.337-.589,4.609,4.609,0,0,0-2.337.589A4.1,4.1,0,0,0-26.59-9.2a5.433,5.433,0,0,0-.58,2.565,5.491,5.491,0,0,0,.58,2.575,4.149,4.149,0,0,0,1.605,1.71A4.552,4.552,0,0,0-22.648-1.748ZM3.42-13.205-.494,0H-2.945L-5.719-9.994-8.664,0-11.1.019l-3.743-13.224h2.3L-9.8-2.451-6.84-13.205h2.432l2.755,10.7L1.1-13.205ZM12.065,0,9.025-5.282H7.372V0H5.206V-13.205h4.56a5.67,5.67,0,0,1,2.574.532,3.69,3.69,0,0,1,1.577,1.425,3.877,3.877,0,0,1,.523,1.995,3.953,3.953,0,0,1-.751,2.346,3.809,3.809,0,0,1-2.309,1.435L14.649,0ZM7.372-7.011H9.766A2.512,2.512,0,0,0,11.6-7.619a2.189,2.189,0,0,0,.618-1.634,2.112,2.112,0,0,0-.608-1.606,2.583,2.583,0,0,0-1.843-.58H7.372ZM23.237.133a6.84,6.84,0,0,1-3.392-.865,6.406,6.406,0,0,1-2.451-2.413,6.8,6.8,0,0,1-.9-3.486,6.744,6.744,0,0,1,.9-3.477,6.426,6.426,0,0,1,2.451-2.4,6.84,6.84,0,0,1,3.392-.865,6.877,6.877,0,0,1,3.411.865,6.358,6.358,0,0,1,2.441,2.4,6.8,6.8,0,0,1,.893,3.477,6.852,6.852,0,0,1-.893,3.486A6.338,6.338,0,0,1,26.647-.732,6.877,6.877,0,0,1,23.237.133Zm0-1.881a4.552,4.552,0,0,0,2.337-.6,4.149,4.149,0,0,0,1.605-1.71,5.49,5.49,0,0,0,.58-2.575,5.433,5.433,0,0,0-.58-2.565,4.1,4.1,0,0,0-1.605-1.691,4.609,4.609,0,0,0-2.337-.589,4.609,4.609,0,0,0-2.337.589A4.1,4.1,0,0,0,19.294-9.2a5.433,5.433,0,0,0-.58,2.565,5.491,5.491,0,0,0,.58,2.575A4.149,4.149,0,0,0,20.9-2.347,4.552,4.552,0,0,0,23.237-1.748Zm1.957-14.288-4.2,2.071v-1.6l4.2-2.318Zm15.447,2.831v1.767H37.126V0H34.96V-11.438H31.426v-1.767Z" transform="translate(1181 1747)"/>
  </g>
</svg>
