<svg xmlns="http://www.w3.org/2000/svg" width="56.135" height="35.393" viewBox="0 0 56.135 35.393">
  <g id="Group_33" data-name="Group 33" transform="translate(-405 -696.184)">
    <rect id="Rectangle_120" data-name="Rectangle 120" width="4.913" height="4.613" transform="translate(411.925 700.262)" fill="#fff"/>
    <rect id="Rectangle_121" data-name="Rectangle 121" width="4.913" height="21.987" transform="translate(411.925 709.321)" fill="#fff"/>
    <rect id="Rectangle_76" data-name="Rectangle 76" width="2.223" height="4.446" transform="translate(408.133 700.424)" fill="#fff"/>
    <rect id="Rectangle_77" data-name="Rectangle 77" width="1.112" height="4.446" transform="translate(405 700.421)" fill="#f1f1f1"/>
    <path id="Path_31" data-name="Path 31" d="M444.363,701.628h8v4.193h-7.985V723.19a4.248,4.248,0,0,0,.953,3.156,4.66,4.66,0,0,0,3.293.932h2.86v4.3h-3.7c-2.838,0-4.957-.656-6.375-1.959s-2.118-3.442-2.118-6.428V705.821h-8.123v-4.193h8.112v-5.444h5.083Z" transform="translate(-10.541)" fill="#fff"/>
    <path id="Path_28" data-name="Path 28" d="M464.454,719.008V723.2h20.63v-4.193Zm6.312,8.292v13.026h5.56V727.3Z" transform="translate(-23.949 -9.194)" fill="#fff"/>
  </g>
</svg>
