<svg xmlns="http://www.w3.org/2000/svg" width="151.333" height="34.422" viewBox="0 0 151.333 34.422">
  <g id="Group_56" data-name="Group 56" transform="translate(-1441 -584.5)">
    <g id="Group_6" data-name="Group 6" transform="translate(1443.408 587.16)">
      <path id="Path_20" data-name="Path 20" d="M1449.142,616.927h-4.421V589h4.421Z" transform="translate(-1444.721 -587.303)"/>
      <path id="Path_21" data-name="Path 21" d="M1465.336,605.378v1.707a6.278,6.278,0,0,1,5.034-2.188,6.526,6.526,0,0,1,5.428,2.5,8.877,8.877,0,0,1,1.138,5.121v11.294h-4.245V613.52c0-1.926-.131-2.8-.569-3.5a3.2,3.2,0,0,0-2.846-1.313c-2.889,0-3.939,1.664-3.939,6.216v8.886h-4.246V605.378Z" transform="translate(-1451.286 -594.182)"/>
      <path id="Path_22" data-name="Path 22" d="M1497.367,620.821h-4.246V606.13h-1.794v-4.051h1.794v-6.856h4.246v6.856h3.327v4.051h-3.327Z" transform="translate(-1461.17 -591.196)"/>
      <path id="Path_23" data-name="Path 23" d="M1513.716,615.621c.219,3.02,2.057,4.946,4.771,4.946,2.145,0,3.283-.831,4.99-3.589l3.589,2.013a10.371,10.371,0,0,1-2.495,3.152,9.4,9.4,0,0,1-6.215,2.232c-5.472,0-9.1-3.852-9.1-9.718s3.546-9.761,8.885-9.761a8.639,8.639,0,0,1,7.266,3.633,11.59,11.59,0,0,1,1.488,6.084v1.006Zm8.8-3.457a4.192,4.192,0,0,0-4.289-3.415,4.3,4.3,0,0,0-4.246,3.415Z" transform="translate(-1467.496 -594.182)"/>
      <path id="Path_24" data-name="Path 24" d="M1547.928,605.354v1.664c1.576-1.664,2.583-2.189,4.245-2.189a5.944,5.944,0,0,1,3.546,1.138l-1.97,3.9a3.533,3.533,0,0,0-2.364-.919c-2.364,0-3.458,1.662-3.458,5.3v9.543h-4.246V605.354Z" transform="translate(-1479.648 -594.158)"/>
      <path id="Path_25" data-name="Path 25" d="M1571.061,605.378v1.707a6.276,6.276,0,0,1,5.033-2.188,6.525,6.525,0,0,1,5.427,2.5,8.872,8.872,0,0,1,1.138,5.121v11.294h-4.246V613.52c0-1.926-.131-2.8-.569-3.5A3.2,3.2,0,0,0,1575,608.7c-2.889,0-3.939,1.664-3.939,6.216v8.886h-4.246V605.378Z" transform="translate(-1487.813 -594.182)"/>
      <path id="Path_26" data-name="Path 26" d="M1602.734,615.621c.219,3.02,2.057,4.946,4.771,4.946,2.145,0,3.283-.831,4.99-3.589l3.589,2.013a10.371,10.371,0,0,1-2.5,3.152,9.4,9.4,0,0,1-6.215,2.232c-5.472,0-9.1-3.852-9.1-9.718s3.545-9.761,8.885-9.761a8.64,8.64,0,0,1,7.266,3.633,11.59,11.59,0,0,1,1.488,6.084v1.006Zm8.8-3.457a4.192,4.192,0,0,0-4.289-3.415,4.3,4.3,0,0,0-4.246,3.415Z" transform="translate(-1498.914 -594.182)"/>
    </g>
    <path id="Subtraction_1" data-name="Subtraction 1" d="M1368.176,717.422h-3.495c-2.661,0-4.685-.621-6.016-1.847s-2.005-3.267-2.005-6.07v-16.4H1349v-3.958h7.661V684h4.8v5.149h7.547v3.958h-7.547v16.4a4.073,4.073,0,0,0,.9,2.982,4.441,4.441,0,0,0,3.114.871h2.7v4.063Z" transform="translate(207.823 -99)" stroke="rgba(0,0,0,0)" stroke-miterlimit="10" stroke-width="1"/>
    <path id="Subtraction_2" data-name="Subtraction 2" d="M1368.176,717.422h-3.495c-2.661,0-4.685-.621-6.016-1.847s-2.005-3.267-2.005-6.07v-16.4H1349v-3.958h7.661V684h4.8v5.149h7.547v3.958h-7.547v16.4a4.073,4.073,0,0,0,.9,2.982,4.441,4.441,0,0,0,3.114.871h2.7v4.063Z" transform="translate(222.823 -99)" fill="#ff3025" stroke="rgba(0,0,0,0)" stroke-miterlimit="10" stroke-width="1"/>
    <rect id="Rectangle_31" data-name="Rectangle 31" width="4" height="10" transform="translate(1451 593) rotate(90)" fill="#fff"/>
  </g>
</svg>
