<svg xmlns="http://www.w3.org/2000/svg" viewBox="0 0 280 67.38"><defs><style>.cls-1{fill:#ff3025;}.cls-2{fill:#f1f1f1;}</style></defs><g id="Layer_2" data-name="Layer 2"><g id="Layer_1-2" data-name="Layer 1"><g id="Group_6" data-name="Group 6"><rect x="11.05" y="6.83" width="7.84" height="7.36"/><rect x="11.05" y="21.28" width="7.84" height="35.08"/><path id="Path_21" data-name="Path 21" d="M36,23.68v3a11.09,11.09,0,0,1,8.93-3.88,11.54,11.54,0,0,1,9.62,4.43,15.73,15.73,0,0,1,2,9.08v20H49V38.12c0-3.42-.23-5-1-6.21a5.67,5.67,0,0,0-5-2.33c-5.13,0-7,3-7,11V56.36H28.43V23.68Z"/><path id="Path_22" data-name="Path 22" d="M75.23,56.36H67.7v-26H64.52V23.12H67.7V11h7.53V23.12h5.9v7.19h-5.9Z"/><path id="Path_23" data-name="Path 23" d="M110.32,44.25c-3,4.89-5,6.36-8.85,6.36-4.82,0-8.07-3.42-8.46-8.78h23.38V40.06a20.8,20.8,0,0,0-2.64-10.8,15.4,15.4,0,0,0-12.9-6.44c-9.47,0-15.75,6.9-15.75,17.31s6.42,17.24,16.14,17.24a16.69,16.69,0,0,0,11-4,18.43,18.43,0,0,0,4.43-5.6ZM101,29.65a7.45,7.45,0,0,1,7.61,6.07H93.48A7.62,7.62,0,0,1,101,29.65Z"/><path id="Path_24" data-name="Path 24" d="M132.13,23.68v2.95c2.79-2.95,4.58-3.88,7.53-3.88a10.53,10.53,0,0,1,6.29,2l-3.5,6.91a6.3,6.3,0,0,0-4.19-1.63c-4.19,0-6.13,2.95-6.13,9.4V56.37H124.6V23.68Z"/><path id="Path_25" data-name="Path 25" d="M158.67,23.68v3a11.12,11.12,0,0,1,8.93-3.88,11.54,11.54,0,0,1,9.62,4.43,15.65,15.65,0,0,1,2,9.08v20h-7.53V38.12c0-3.42-.23-5-1-6.21a5.68,5.68,0,0,0-5-2.34c-5.12,0-7,3-7,11V56.35h-7.53V23.68Z"/><path id="Path_26" data-name="Path 26" d="M212.47,44.25c-3,4.89-5.05,6.36-8.85,6.36-4.82,0-8.07-3.42-8.46-8.78h23.36V40.06a20.52,20.52,0,0,0-2.65-10.8A15.34,15.34,0,0,0,203,22.82c-9.47,0-15.77,6.9-15.77,17.31s6.44,17.24,16.14,17.24a16.7,16.7,0,0,0,11-4,18.31,18.31,0,0,0,4.44-5.6Zm-9.31-14.6a7.45,7.45,0,0,1,7.61,6.07H195.62A7.63,7.63,0,0,1,203.16,29.65Z"/></g><path d="M234.26,9.12h13.39v7H234.28V45.22a7.13,7.13,0,0,0,1.6,5.29,7.84,7.84,0,0,0,5.51,1.56h4.79v7.2H240q-7.12,0-10.67-3.28c-2.36-2.19-3.55-5.77-3.55-10.77V16.14h-13.6v-7h13.58V0h8.51Z"/><rect x="255.05" y="52.07" width="0.09" height="7.2"/><path id="Path_28" data-name="Path 28" class="cls-1" d="M245.45,22.82v7H280v-7ZM256,36.71V58.52h9.31V36.71Z"/><rect id="Rectangle_76" data-name="Rectangle 76" class="cls-1" x="5" y="7.09" width="3.55" height="7.09"/><rect id="Rectangle_61" data-name="Rectangle 61" class="cls-2" x="6.77" y="60.29" width="76.26" height="7.09"/><rect id="Rectangle_77" data-name="Rectangle 77" class="cls-2" y="6.08" width="1.77" height="7.09"/></g></g></svg>