<svg xmlns="http://www.w3.org/2000/svg" width="31.683" height="34.859" viewBox="0 0 31.683 34.859">
  <path id="Path_39" data-name="Path 39" d="M1335.412,175.666a20.734,20.734,0,0,0,3.132,4.936,20.085,20.085,0,0,0,4.223,3.748,2.429,2.429,0,0,0,.807.38.66.66,0,0,0,.284-.1l2.848-2.42a2.5,2.5,0,0,1,1.755-.617,2.409,2.409,0,0,1,1.709.712c.9.854,1.85,1.708,2.8,2.515.949.854,1.946,1.613,2.9,2.373a2.342,2.342,0,0,1,.759.9,2.8,2.8,0,0,1,.237,1.092,3.193,3.193,0,0,1-.189,1.138,4.24,4.24,0,0,1-.712.9l-4.176,3.512a4.575,4.575,0,0,1-1.993.949,4.325,4.325,0,0,1-2.183-.238,34.4,34.4,0,0,1-7.924-4.223,36.605,36.605,0,0,1-11.579-13.667,34.43,34.43,0,0,1-2.847-8.494,4.437,4.437,0,0,1,.142-2.23,4.238,4.238,0,0,1,1.282-1.8l4.176-3.559a2.873,2.873,0,0,1,1-.522h.047a2.85,2.85,0,0,1,1.092-.047,2.362,2.362,0,0,1,1.044.474,2.208,2.208,0,0,1,.759.854q.853,1.638,1.851,3.275c.664,1.091,1.328,2.135,2.04,3.179a2.553,2.553,0,0,1-.474,3.417l-2.9,2.42a.406.406,0,0,0-.142.284,2.1,2.1,0,0,0,.237.854Zm1.661,6.169a23.738,23.738,0,0,1-3.464-5.362,3.973,3.973,0,0,1-.38-1.8,2.2,2.2,0,0,1,.854-1.613l2.847-2.421a.637.637,0,0,0,.238-.427.706.706,0,0,0-.095-.427c-.759-1.091-1.424-2.182-2.088-3.274s-1.281-2.23-1.9-3.369c-.048-.048-.1-.142-.19-.19a.363.363,0,0,0-.237-.1.306.306,0,0,0-.285,0h0a.261.261,0,0,0-.237.143l-4.224,3.511a1.959,1.959,0,0,0-.664,1,2.49,2.49,0,0,0-.095,1.186,34.755,34.755,0,0,0,2.7,8.02,36.352,36.352,0,0,0,4.65,7.165,34.243,34.243,0,0,0,6.312,5.742,35.441,35.441,0,0,0,7.45,4.033,2.061,2.061,0,0,0,1.186.1,2.116,2.116,0,0,0,1.091-.522l4.129-3.512c.095-.047.142-.142.189-.189a.868.868,0,0,0,0-.57.373.373,0,0,0-.189-.19c-1-.806-1.993-1.613-2.99-2.467-.949-.807-1.945-1.708-2.894-2.563a.433.433,0,0,0-.38-.189.579.579,0,0,0-.427.142l-2.9,2.42a2.342,2.342,0,0,1-1.708.57,4.025,4.025,0,0,1-1.708-.665,21.549,21.549,0,0,1-4.6-4.176Z" transform="translate(-1325.177 -160.877)"/>
</svg>
